Coordinates
version=1
nRows=30
nColumns=33
inDegrees=yes

Units are S.I. units (second, meters, Newtons, ...)
Angles are in degrees.

endheader
time	ground_thorax_rot_x	ground_thorax_rot_y	ground_thorax_rot_z	ground_thorax_tx	ground_thorax_ty	ground_thorax_tz	clav_prot_r	clav_elev_r	scapula_abduction_r	scapula_elevation_r	scapula_upward_rot_r	scapula_winging_r	shoulder_elv_r	plane_of_elev_r	axial_rot_r	elbow_flexion_r	pro_sup_r	wrist_flex_r	wrist_dev_r	clav_prot_l	clav_elev_l	scapula_abduction_l	scapula_elevation_l	scapula_upward_rot_l	scapula_winging_l	shoulder_elv_l	plane_of_elev_l	axial_rot_l	elbow_flexion_l	pro_sup_l	wrist_flex_l	wrist_dev_l	
1.2100	1.773084	0.905107	-0.015954	-0.154834	0.988354	0.006017	-8.552662	2.587770	-9.577702	6.215781	8.405074	-1.903685	48.093558	-47.836065	58.017167	76.318717	-9.425026	35.021393	-17.100064	-8.020466	5.948912	8.942612	-8.531465	7.335305	1.515214	38.254918	-51.453904	-30.303465	75.019687	15.994533	-11.003213	-25.000000	
1.2200	1.850015	0.916386	-0.056442	-0.154681	0.988301	0.006074	-8.587526	2.540265	-9.805446	6.294403	8.086284	-1.786050	48.035482	-47.638220	57.333979	76.186664	-8.516254	35.144461	-17.312950	-8.141738	5.641490	9.009823	-8.231224	7.377411	1.503626	38.193434	-51.589048	-30.486653	74.728224	15.615019	-11.129314	-25.000000	
1.2300	1.894034	0.910945	-0.062077	-0.154576	0.988240	0.006130	-8.629745	2.456980	-9.980578	6.305545	7.857256	-1.695499	47.977622	-47.537436	56.814386	76.087613	-7.877056	35.239431	-17.459193	-8.221047	5.407718	9.078720	-8.031343	7.336799	1.473073	38.143055	-51.641371	-30.574335	74.427700	15.402213	-11.276415	-25.000000	
1.2400	1.934371	0.924117	-0.091984	-0.154509	0.988197	0.006168	-8.662564	2.358312	-10.150874	6.315549	7.595601	-1.595748	47.927876	-47.434359	56.181581	76.003369	-7.089115	35.375269	-17.632362	-8.294681	5.165457	9.147158	-7.832961	7.272585	1.435285	38.110087	-51.621895	-30.636877	74.149425	15.186739	-11.522835	-25.000000	
1.2500	1.954469	0.945967	-0.119232	-0.154490	0.988166	0.006196	-8.678444	2.232308	-10.290940	6.309744	7.311605	-1.492022	47.883577	-47.374404	55.462754	75.935354	-6.173090	35.557687	-17.810393	-8.339029	4.950414	9.219021	-7.691171	7.128186	1.376430	38.111946	-51.500874	-30.636009	73.882186	15.044015	-11.938288	-25.000000	
1.2600	1.956992	0.976686	-0.142538	-0.154527	0.988131	0.006204	-8.675690	2.089707	-10.395771	6.293629	7.016636	-1.389150	47.847824	-47.353706	54.692682	75.885698	-5.162893	35.773762	-17.983212	-8.357247	4.763975	9.292275	-7.601471	6.918302	1.300965	38.144213	-51.291939	-30.582956	73.646078	14.970028	-12.501376	-25.000000	
1.2700	1.946262	1.003579	-0.142247	-0.154590	0.988094	0.006202	-8.657180	1.945412	-10.471280	6.277215	6.719641	-1.289750	47.826438	-47.373032	53.897377	75.848784	-4.070280	36.005845	-18.137211	-8.359636	4.603412	9.379292	-7.557556	6.652293	1.209320	38.205390	-51.035754	-30.492749	73.436576	14.956989	-13.205926	-25.000000	
1.2800	1.931444	1.024178	-0.130330	-0.154667	0.988044	0.006188	-8.634071	1.810416	-10.520006	6.254596	6.461072	-1.204975	47.824051	-47.423841	53.170798	75.830975	-3.038647	36.211756	-18.248299	-8.359938	4.457982	9.478086	-7.533874	6.370073	1.111960	38.277083	-50.763635	-30.385795	73.261978	14.991644	-13.957761	-25.000000	
1.2900	1.926286	1.030169	-0.112379	-0.154738	0.987994	0.006178	-8.590327	1.689620	-10.537559	6.246450	6.200239	-1.125270	47.852751	-47.491994	52.425975	75.836782	-1.862493	36.402197	-18.309877	-8.368807	4.296086	9.608777	-7.511416	6.045828	0.997431	38.383360	-50.485570	-30.287255	73.113054	15.052166	-14.898249	-25.000000	
1.3000	1.932160	1.021196	-0.100689	-0.154809	0.987931	0.006172	-8.539400	1.586185	-10.526660	6.239103	5.979086	-1.061380	47.908884	-47.568101	51.763546	75.875516	-0.725066	36.540183	-18.310229	-8.390841	4.119169	9.757813	-7.475977	5.719510	0.878645	38.504128	-50.222552	-30.209769	72.995837	15.125868	-15.897038	-24.999999	
1.3100	1.953085	1.000253	-0.102263	-0.154857	0.987891	0.006184	-8.491349	1.483720	-10.504281	6.220725	5.788530	-1.006574	47.991592	-47.660473	51.141476	75.951413	0.388911	36.623398	-18.263528	-8.431794	3.913068	9.937946	-7.419974	5.376847	0.748767	38.644503	-49.959897	-30.143765	72.879617	15.199918	-16.972196	-24.999999	
1.3200	1.979031	0.979257	-0.124979	-0.154898	0.987860	0.006209	-8.459128	1.380176	-10.486212	6.183953	5.641757	-0.961879	48.081979	-47.754290	50.613327	76.056815	1.318757	36.646462	-18.200436	-8.484865	3.695006	10.119898	-7.342613	5.060755	0.624780	38.782591	-49.707829	-30.089959	72.772002	15.244791	-17.956180	-24.999998	
1.3300	2.010093	0.956694	-0.162067	-0.154935	0.987862	0.006258	-8.422535	1.255705	-10.460890	6.134144	5.479438	-0.911820	48.192994	-47.864914	50.068386	76.201690	2.261810	36.619947	-18.134290	-8.542190	3.450712	10.326322	-7.261510	4.692639	0.481545	38.971813	-49.433043	-30.041298	72.666580	15.240659	-19.034263	-24.999997	
1.3400	2.032738	0.931738	-0.193234	-0.154981	0.987851	0.006317	-8.393745	1.130185	-10.440291	6.076530	5.334163	-0.865175	48.304501	-47.972715	49.612763	76.368694	3.018225	36.540175	-18.080375	-8.596533	3.219009	10.524577	-7.187381	4.336647	0.343509	39.175143	-49.185964	-30.003522	72.591827	15.175763	-19.995094	-24.999995	
1.3500	2.051890	0.903762	-0.219136	-0.155011	0.987826	0.006387	-8.380332	1.001955	-10.438034	6.009667	5.204996	-0.819370	48.417402	-48.082531	49.216917	76.562314	3.618258	36.418297	-18.040272	-8.655688	2.995281	10.729340	-7.117149	3.989063	0.206925	39.387377	-48.964522	-29.960634	72.546192	15.056783	-20.857867	-24.999991	
1.3600	2.060417	0.875350	-0.237584	-0.155032	0.987740	0.006453	-8.386829	0.889918	-10.459803	5.943886	5.109667	-0.780159	48.510587	-48.170575	48.920296	76.760061	3.999573	36.291186	-18.020854	-8.713176	2.807989	10.911945	-7.056289	3.702954	0.092067	39.565859	-48.793203	-29.903346	72.552027	14.911185	-21.497407	-24.999983	
1.3700	2.069007	0.844770	-0.258945	-0.155046	0.987625	0.006519	-8.396475	0.781005	-10.488440	5.880856	5.014263	-0.740171	48.601595	-48.245229	48.634711	76.968783	4.348140	36.174142	-18.008672	-8.767336	2.629628	11.090414	-7.002950	3.418620	-0.021253	39.741207	-48.636200	-29.819319	72.597818	14.753491	-22.083599	-24.999970	
1.3800	2.074348	0.818063	-0.278273	-0.155066	0.987474	0.006572	-8.412804	0.688459	-10.526860	5.826607	4.934386	-0.704540	48.675147	-48.289906	48.398525	77.160648	4.593960	36.086742	-18.011842	-8.810585	2.479389	11.235218	-6.957945	3.179537	-0.115707	39.878975	-48.511964	-29.708581	72.683677	14.600834	-22.499412	-24.999946	
1.3900	2.085246	0.793279	-0.300455	-0.155092	0.987337	0.006630	-8.430016	0.589553	-10.573226	5.773032	4.837856	-0.662796	48.760192	-48.316609	48.156833	77.365404	4.796444	35.999351	-18.036019	-8.839098	2.316876	11.363552	-6.915469	2.906759	-0.217308	40.028101	-48.395903	-29.541005	72.811557	14.402098	-22.828354	-24.999904	
1.4000	2.100372	0.772534	-0.319046	-0.155141	0.987232	0.006687	-8.444800	0.486569	-10.620181	5.720657	4.728983	-0.617406	48.853026	-48.324371	47.917861	77.571767	4.959813	35.911474	-18.075924	-8.852693	2.147511	11.471511	-6.875792	2.612184	-0.321829	40.184202	-48.286627	-29.331238	72.972558	14.169412	-23.075227	-24.999828	
1.4100	2.120607	0.750585	-0.331448	-0.155199	0.987177	0.006752	-8.453330	0.369402	-10.663372	5.664785	4.596291	-0.564827	48.965433	-48.329085	47.646234	77.803268	5.154168	35.801636	-18.120729	-8.858841	1.958844	11.586563	-6.840796	2.261352	-0.443556	40.376514	-48.167331	-29.086660	73.165222	13.892553	-23.349764	-24.999692	
1.4200	2.139220	0.732900	-0.332164	-0.155264	0.987149	0.006810	-8.465373	0.258910	-10.707433	5.608914	4.479004	-0.516494	49.064783	-48.324034	47.382904	78.032002	5.330687	35.692979	-18.161066	-8.867858	1.788510	11.697420	-6.809507	1.943464	-0.554765	40.550617	-48.052144	-28.848928	73.367575	13.632322	-23.584440	-24.999448	
1.4300	2.153834	0.717892	-0.335017	-0.155311	0.987121	0.006861	-8.491893	0.152880	-10.767863	5.547987	4.383908	-0.471161	49.145771	-48.308224	47.106697	78.284877	5.485590	35.582843	-18.197838	-8.890060	1.635496	11.819284	-6.778071	1.665210	-0.656464	40.700245	-47.934381	-28.601008	73.600494	13.384694	-23.773059	-24.999011	
1.4400	2.160746	0.711253	-0.339484	-0.155347	0.987088	0.006894	-8.533800	0.064784	-10.838308	5.484895	4.335171	-0.437696	49.185626	-48.274140	46.847769	78.531381	5.584116	35.479438	-18.220968	-8.928170	1.522329	11.934960	-6.742844	1.488022	-0.728420	40.789040	-47.818949	-28.375330	73.838661	13.192111	-23.860354	-24.998228	
1.4500	2.160111	0.710270	-0.357793	-0.155357	0.987036	0.006910	-8.590437	-0.012350	-10.920675	5.417391	4.322278	-0.412266	49.189208	-48.220182	46.578300	78.793437	5.637430	35.362978	-18.229797	-8.980854	1.437675	12.049943	-6.703240	1.387228	-0.779004	40.829879	-47.695850	-28.149024	74.101831	13.031405	-23.846386	-24.996828	
1.4600	2.153200	0.714900	-0.389441	-0.155370	0.986988	0.006915	-8.642852	-0.080545	-10.991406	5.352890	4.323019	-0.392883	49.160338	-48.140580	46.283352	79.063964	5.657599	35.190606	-18.213230	-9.030523	1.370374	12.142722	-6.661682	1.332037	-0.813212	40.844049	-47.556835	-27.916060	74.379002	12.878724	-23.702602	-24.994313	
1.4700	2.145138	0.720271	-0.432825	-0.155390	0.986967	0.006916	-8.680337	-0.154150	-11.044637	5.292446	4.301831	-0.369913	49.125993	-48.041023	45.918954	79.371284	5.686753	34.925048	-18.173185	-9.066546	1.288533	12.221322	-6.620582	1.242926	-0.855239	40.879579	-47.388970	-27.638490	74.690444	12.676970	-23.469063	-24.989829	
1.4800	2.139549	0.726212	-0.464706	-0.155464	0.986984	0.006925	-8.672568	-0.218434	-11.051250	5.266573	4.218044	-0.340329	49.080410	-47.920090	45.435311	79.720939	5.739536	34.442507	-18.072146	-9.062187	1.189288	12.258846	-6.597799	1.070675	-0.912890	40.962796	-47.189733	-27.295791	75.035482	12.375227	-23.023904	-24.981738	
1.4900	2.136484	0.731553	-0.471312	-0.155568	0.987034	0.006936	-8.631878	-0.269219	-11.024509	5.270541	4.092417	-0.307485	49.026420	-47.786389	44.864075	80.103572	5.807232	33.790493	-17.919129	-9.028788	1.082615	12.267590	-6.591832	0.841195	-0.981019	41.078485	-46.972353	-26.910168	75.405995	12.004549	-22.413443	-24.967408	
1.5000	2.136369	0.734304	-0.459249	-0.155688	0.987100	0.006945	-8.565891	-0.306989	-10.969758	5.297253	3.941208	-0.274344	48.960404	-47.638434	44.219011	80.521407	5.880152	32.988327	-17.712915	-8.973424	0.972789	12.252420	-6.598265	0.574894	-1.054707	41.213818	-46.736727	-26.494096	75.804919	11.587636	-21.656521	-24.941284	
